# This file uses centimeters as units for non-parametric coordinates.

mtllib sand.mtl
g default
v -10.000000 -0.000000 10.000000
v -8.000073 0.019459 10.000165
v -6.000445 0.118701 10.001001
v -4.000930 0.182777 10.004482
v -2.000603 0.169182 10.002909
v -0.000673 0.515397 10.003242
v 2.000000 0.326768 10.000000
v 4.000000 0.233406 10.000000
v 6.000000 0.283977 10.000000
v 8.000001 0.044736 10.000000
v 10.000000 -0.000000 10.000000
v -10.000932 0.161327 7.994055
v -8.001488 0.270215 7.996606
v -6.001357 0.280039 7.999545
v -4.000979 0.243071 8.004721
v -2.000000 0.114758 8.000000
v -0.000396 0.151690 8.001907
v 2.000000 0.383175 8.000000
v 4.000000 0.208120 8.000000
v 6.000000 0.083637 8.000000
v 8.000001 0.056406 8.000000
v 10.000000 0.120593 8.000000
v -10.000820 0.141890 5.994772
v -8.001578 0.377182 5.996034
v -6.000776 0.141914 5.998709
v -4.003105 0.593005 6.006669
v -2.001306 0.297512 6.006294
v -0.001741 0.486155 6.008392
v 1.999516 0.151684 6.002337
v 4.000000 0.143934 6.000000
v 6.000000 0.110868 6.000000
v 8.000001 0.254802 6.000000
v 10.000000 0.157549 6.000000
v -10.001808 0.454924 3.988468
v -8.001231 0.472521 3.996249
v -6.000684 0.328656 4.000403
v -4.001035 0.289721 3.999709
v -2.002702 0.554094 3.998057
v -0.000366 0.217823 4.001764
v 1.998705 0.420051 4.006246
v 4.000000 0.521273 4.000000
v 6.000000 0.122538 4.000000
v 8.000001 0.262582 4.000000
v 10.000000 0.116703 4.000000
v -10.002044 0.353753 1.986964
v -8.002632 0.616287 1.987535
v -6.000674 0.116622 1.995702
v -4.001504 0.412214 1.998825
v -2.000854 0.431698 1.994556
v -0.000336 0.231440 2.001621
v 1.998715 0.532865 2.006198
v 3.999215 0.493983 2.003952
v 6.000000 0.177000 2.000000
v 7.999665 0.058326 2.001694
v 10.000000 -0.000000 2.000000
v -10.000281 0.048592 -0.001791
v -8.001854 0.320710 -0.011818
v -6.002131 0.182680 0.001610
v -4.000708 0.280002 -0.004512
v -2.001337 0.404410 -0.008523
v 0.000000 0.601020 0.000000
v 2.000000 0.569900 0.000000
v 3.999552 0.130284 0.002258
v 5.999249 0.130261 0.003782
v 7.998174 0.375256 0.009202
v 9.999272 0.126373 0.003669
v -10.000000 0.000000 -2.000000
v -8.000896 0.173060 -2.004155
v -6.003989 0.357654 -1.998523
v -4.001902 0.427858 -1.997716
v -2.001958 0.488187 -1.993770
v -0.001004 0.276287 -2.000025
v 2.000000 0.394845 -2.000000
v 3.998666 0.388909 -1.993283
v 6.000000 0.038901 -2.000000
v 7.999126 0.365603 -1.995597
v 10.000000 0.075857 -2.000000
v -10.001256 0.260625 -4.004297
v -8.000997 0.200311 -4.003939
v -6.001080 0.266600 -4.000000
v -4.001784 0.443657 -4.000021
v -2.000734 0.165408 -4.000006
v -0.001243 0.387176 -4.000030
v 2.000000 0.106978 -4.000000
v 3.999275 0.262646 -4.000017
v 5.999350 0.392851 -3.996725
v 7.999171 0.385057 -3.995822
v 10.000000 0.241186 -4.000000
v -10.000434 0.107029 -6.000000
v -8.000000 0.000000 -6.000000
v -6.000592 0.145949 -6.000000
v -4.000649 0.142056 -6.000008
v -2.001445 0.457218 -6.000034
v -0.001719 0.391108 -6.000042
v 1.999617 0.426000 -6.000010
v 3.999378 0.165385 -6.000015
v 6.000000 0.149769 -6.000000
v 8.000001 0.178945 -6.000000
v 10.000000 0.070022 -6.000000
v -10.000000 0.000000 -8.000001
v -8.000244 0.060326 -8.000001
v -6.000000 0.000000 -8.000001
v -4.001151 0.252977 -8.000014
v -2.000445 0.134248 -8.000011
v -0.000704 0.291820 -8.000018
v 1.999400 0.112866 -8.000016
v 3.998744 0.130358 -8.000275
v 6.000000 0.126428 -8.000001
v 8.000001 0.095307 -8.000001
v 10.000000 0.132263 -8.000001
v -10.000000 0.000000 -10.000000
v -8.000000 0.000000 -10.000000
v -6.000000 0.000000 -10.000000
v -4.000000 0.000000 -10.000000
v -2.000311 0.058379 -10.000007
v -0.000352 0.066163 -10.000008
v 2.000000 0.000000 -10.000000
v 4.000000 0.000000 -10.000000
v 6.000000 0.070022 -10.000000
v 8.000001 0.052516 -10.000000
v 10.000000 0.000000 -10.000000
vt 0.000000 0.000000
vt 0.100000 0.000000
vt 0.200000 0.000000
vt 0.300000 0.000000
vt 0.400000 0.000000
vt 0.500000 0.000000
vt 0.600000 0.000000
vt 0.700000 0.000000
vt 0.800000 0.000000
vt 0.900000 0.000000
vt 1.000000 0.000000
vt 0.000000 0.100000
vt 0.100000 0.100000
vt 0.200000 0.100000
vt 0.300000 0.100000
vt 0.400000 0.100000
vt 0.500000 0.100000
vt 0.600000 0.100000
vt 0.700000 0.100000
vt 0.800000 0.100000
vt 0.900000 0.100000
vt 1.000000 0.100000
vt 0.000000 0.200000
vt 0.100000 0.200000
vt 0.200000 0.200000
vt 0.300000 0.200000
vt 0.400000 0.200000
vt 0.500000 0.200000
vt 0.600000 0.200000
vt 0.700000 0.200000
vt 0.800000 0.200000
vt 0.900000 0.200000
vt 1.000000 0.200000
vt 0.000000 0.300000
vt 0.100000 0.300000
vt 0.200000 0.300000
vt 0.300000 0.300000
vt 0.400000 0.300000
vt 0.500000 0.300000
vt 0.600000 0.300000
vt 0.700000 0.300000
vt 0.800000 0.300000
vt 0.900000 0.300000
vt 1.000000 0.300000
vt 0.000000 0.400000
vt 0.100000 0.400000
vt 0.200000 0.400000
vt 0.300000 0.400000
vt 0.400000 0.400000
vt 0.500000 0.400000
vt 0.600000 0.400000
vt 0.700000 0.400000
vt 0.800000 0.400000
vt 0.900000 0.400000
vt 1.000000 0.400000
vt 0.000000 0.500000
vt 0.100000 0.500000
vt 0.200000 0.500000
vt 0.300000 0.500000
vt 0.400000 0.500000
vt 0.500000 0.500000
vt 0.600000 0.500000
vt 0.700000 0.500000
vt 0.800000 0.500000
vt 0.900000 0.500000
vt 1.000000 0.500000
vt 0.000000 0.600000
vt 0.100000 0.600000
vt 0.200000 0.600000
vt 0.300000 0.600000
vt 0.400000 0.600000
vt 0.500000 0.600000
vt 0.600000 0.600000
vt 0.700000 0.600000
vt 0.800000 0.600000
vt 0.900000 0.600000
vt 1.000000 0.600000
vt 0.000000 0.700000
vt 0.100000 0.700000
vt 0.200000 0.700000
vt 0.300000 0.700000
vt 0.400000 0.700000
vt 0.500000 0.700000
vt 0.600000 0.700000
vt 0.700000 0.700000
vt 0.800000 0.700000
vt 0.900000 0.700000
vt 1.000000 0.700000
vt 0.000000 0.800000
vt 0.100000 0.800000
vt 0.200000 0.800000
vt 0.300000 0.800000
vt 0.400000 0.800000
vt 0.500000 0.800000
vt 0.600000 0.800000
vt 0.700000 0.800000
vt 0.800000 0.800000
vt 0.900000 0.800000
vt 1.000000 0.800000
vt 0.000000 0.900000
vt 0.100000 0.900000
vt 0.200000 0.900000
vt 0.300000 0.900000
vt 0.400000 0.900000
vt 0.500000 0.900000
vt 0.600000 0.900000
vt 0.700000 0.900000
vt 0.800000 0.900000
vt 0.900000 0.900000
vt 1.000000 0.900000
vt 0.000000 1.000000
vt 0.100000 1.000000
vt 0.200000 1.000000
vt 0.300000 1.000000
vt 0.400000 1.000000
vt 0.500000 1.000000
vt 0.600000 1.000000
vt 0.700000 1.000000
vt 0.800000 1.000000
vt 0.900000 1.000000
vt 1.000000 1.000000
vn -0.031977 0.994249 0.102204
vn -0.029600 0.994316 0.102268
vn -0.022258 0.998248 0.054821
vn -0.058869 0.996328 0.062173
vn -0.017091 0.996734 0.078930
vn -0.020401 0.998499 0.050837
vn 0.014287 0.999494 0.028406
vn 0.007962 0.998120 0.060768
vn -0.030148 0.998221 -0.051447
vn -0.002772 0.999202 0.039842
vn -0.052826 0.994533 -0.090075
vn -0.034626 0.999379 -0.006498
vn 0.028137 0.999010 -0.034457
vn 0.031904 0.999061 -0.029322
vn 0.042741 0.998791 -0.024281
vn 0.042588 0.998549 -0.032942
vn 0.042381 0.997764 -0.051685
vn 0.023829 0.999617 -0.014060
vn 0.030853 0.999499 -0.007037
vn 0.010217 0.999629 0.025252
vn -0.004860 0.999442 0.033047
vn 0.001705 0.998944 0.045914
vn 0.000406 0.998905 0.046775
vn -0.074470 0.995327 0.061469
vn -0.013723 0.999672 0.021612
vn -0.023004 0.999075 0.036329
vn 0.023651 0.997775 0.062339
vn 0.009808 0.999226 0.038092
vn 0.020311 0.999390 0.028398
vn 0.042450 0.998135 0.043878
vn 0.011782 0.999235 0.037295
vn -0.007766 0.999581 0.027891
vn 0.034494 0.999086 0.025262
vn 0.030600 0.998675 0.041366
vn -0.066512 0.996215 0.055954
vn 0.022428 0.999748 0.000565
vn -0.057590 0.998216 -0.015774
vn 0.026907 0.999584 -0.010421
vn 0.019404 0.999812 0.000411
vn -0.032964 0.998008 0.053800
vn 0.061635 0.995561 0.071123
vn 0.052447 0.998464 0.017875
vn 0.008831 0.999505 -0.030203
vn 0.055748 0.997465 -0.044219
vn 0.028702 0.998166 -0.053296
vn -0.101462 0.992379 -0.069920
vn 0.039227 0.998829 -0.028309
vn -0.067139 0.997551 -0.019619
vn 0.007014 0.999965 0.004642
vn -0.014411 0.998771 0.047410
vn -0.022284 0.999585 0.018246
vn 0.090263 0.995172 -0.038544
vn 0.055309 0.998333 -0.016493
vn 0.022912 0.999623 0.015150
vn 0.063847 0.997842 0.015310
vn -0.024334 0.997737 -0.062681
vn -0.121258 0.987720 -0.098517
vn 0.002242 0.999992 0.003233
vn -0.055457 0.998248 0.020613
vn -0.019461 0.999752 0.010822
vn -0.021418 0.999770 0.000499
vn 0.035018 0.999164 -0.021107
vn 0.098732 0.994658 -0.030140
vn -0.002162 0.999986 -0.004758
vn 0.009132 0.999371 0.034268
vn 0.105137 0.993319 0.047575
vn -0.053506 0.998562 0.003430
vn -0.069744 0.997502 0.011190
vn -0.044471 0.998923 0.013238
vn -0.023690 0.999662 0.010740
vn 0.002465 0.999455 -0.032911
vn 0.004980 0.997505 -0.070426
vn 0.022926 0.997753 -0.062955
vn 0.054005 0.998533 0.003850
vn -0.020159 0.998937 0.041454
vn 0.005112 0.999681 0.024734
vn 0.120632 0.992577 0.015438
vn -0.025480 0.999276 -0.028246
vn 0.006832 0.999942 -0.008312
vn -0.055030 0.996967 -0.055032
vn -0.014863 0.998596 -0.050842
vn 0.000942 0.999895 -0.014476
vn 0.015043 0.999782 0.014495
vn 0.022551 0.999741 -0.002986
vn 0.003725 0.999808 -0.019258
vn -0.014724 0.999822 -0.011785
vn 0.021563 0.999629 -0.016612
vn 0.085394 0.996057 -0.024035
vn -0.005214 0.998717 -0.050377
vn 0.026734 0.998385 -0.050132
vn -0.044906 0.997534 -0.053932
vn -0.041010 0.998254 -0.042500
vn -0.030009 0.999314 -0.021708
vn 0.008874 0.999869 -0.013529
vn 0.046046 0.998849 -0.013464
vn 0.015811 0.999333 -0.032906
vn -0.007116 0.998202 -0.059511
vn 0.019066 0.998041 -0.059581
vn 0.040449 0.997947 -0.049662
vn -0.002432 0.999872 -0.015809
vn -0.001709 0.999909 -0.013378
vn -0.032898 0.999090 -0.027129
vn -0.039789 0.997871 -0.051683
vn -0.024431 0.996594 -0.078767
vn 0.008224 0.995741 -0.091829
vn 0.038281 0.995772 -0.083500
vn 0.011181 0.998574 -0.052211
vn 0.000252 0.999602 -0.028197
vn 0.008628 0.999646 -0.025159
vn 0.010938 0.999639 -0.024543
vn 0.000001 0.999886 -0.015080
vn -0.015079 0.999773 -0.015079
vn -0.024059 0.998945 -0.039126
vn -0.024042 0.997077 -0.072517
vn -0.013074 0.996825 -0.078548
vn 0.009996 0.996765 -0.079749
vn 0.028341 0.996967 -0.072487
vn -0.010430 0.998504 -0.053676
vn -0.002183 0.999359 -0.035730
vn 0.008017 0.999381 -0.034263
vn 0.003886 0.999036 -0.043721
s 1
g pPlane1
usemtl initialShadingGroup
f 1/1/1 2/2/2 13/13/3 12/12/4
f 2/2/2 3/3/5 14/14/6 13/13/3
f 3/3/5 4/4/7 15/15/8 14/14/6
f 4/4/7 5/5/9 16/16/10 15/15/8
f 5/5/9 6/6/11 17/17/12 16/16/10
f 6/6/11 7/7/13 18/18/14 17/17/12
f 7/7/13 8/8/15 19/19/16 18/18/14
f 8/8/15 9/9/17 20/20/18 19/19/16
f 9/9/17 10/10/19 21/21/20 20/20/18
f 10/10/19 11/11/21 22/22/22 21/21/20
f 12/12/4 13/13/3 24/24/23 23/23/24
f 13/13/3 14/14/6 25/25/25 24/24/23
f 14/14/6 15/15/8 26/26/26 25/25/25
f 15/15/8 16/16/10 27/27/27 26/26/26
f 16/16/10 17/17/12 28/28/28 27/27/27
f 17/17/12 18/18/14 29/29/29 28/28/28
f 18/18/14 19/19/16 30/30/30 29/29/29
f 19/19/16 20/20/18 31/31/31 30/30/30
f 20/20/18 21/21/20 32/32/32 31/31/31
f 21/21/20 22/22/22 33/33/33 32/32/32
f 23/23/24 24/24/23 35/35/34 34/34/35
f 24/24/23 25/25/25 36/36/36 35/35/34
f 25/25/25 26/26/26 37/37/37 36/36/36
f 26/26/26 27/27/27 38/38/38 37/37/37
f 27/27/27 28/28/28 39/39/39 38/38/38
f 28/28/28 29/29/29 40/40/40 39/39/39
f 29/29/29 30/30/30 41/41/41 40/40/40
f 30/30/30 31/31/31 42/42/42 41/41/41
f 31/31/31 32/32/32 43/43/43 42/42/42
f 32/32/32 33/33/33 44/44/44 43/43/43
f 34/34/35 35/35/34 46/46/45 45/45/46
f 35/35/34 36/36/36 47/47/47 46/46/45
f 36/36/36 37/37/37 48/48/48 47/47/47
f 37/37/37 38/38/38 49/49/49 48/48/48
f 38/38/38 39/39/39 50/50/50 49/49/49
f 39/39/39 40/40/40 51/51/51 50/50/50
f 40/40/40 41/41/41 52/52/52 51/51/51
f 41/41/41 42/42/42 53/53/53 52/52/52
f 42/42/42 43/43/43 54/54/54 53/53/53
f 43/43/43 44/44/44 55/55/55 54/54/54
f 45/45/46 46/46/45 57/57/56 56/56/57
f 46/46/45 47/47/47 58/58/58 57/57/56
f 47/47/47 48/48/48 59/59/59 58/58/58
f 48/48/48 49/49/49 60/60/60 59/59/59
f 49/49/49 50/50/50 61/61/61 60/60/60
f 50/50/50 51/51/51 62/62/62 61/61/61
f 51/51/51 52/52/52 63/63/63 62/62/62
f 52/52/52 53/53/53 64/64/64 63/63/63
f 53/53/53 54/54/54 65/65/65 64/64/64
f 54/54/54 55/55/55 66/66/66 65/65/65
f 56/56/57 57/57/56 68/68/67 67/67/68
f 57/57/56 58/58/58 69/69/69 68/68/67
f 58/58/58 59/59/59 70/70/70 69/69/69
f 59/59/59 60/60/60 71/71/71 70/70/70
f 60/60/60 61/61/61 72/72/72 71/71/71
f 61/61/61 62/62/62 73/73/73 72/72/72
f 62/62/62 63/63/63 74/74/74 73/73/73
f 63/63/63 64/64/64 75/75/75 74/74/74
f 64/64/64 65/65/65 76/76/76 75/75/75
f 65/65/65 66/66/66 77/77/77 76/76/76
f 67/67/68 68/68/67 79/79/78 78/78/79
f 68/68/67 69/69/69 80/80/80 79/79/78
f 69/69/69 70/70/70 81/81/81 80/80/80
f 70/70/70 71/71/71 82/82/82 81/81/81
f 71/71/71 72/72/72 83/83/83 82/82/82
f 72/72/72 73/73/73 84/84/84 83/83/83
f 73/73/73 74/74/74 85/85/85 84/84/84
f 74/74/74 75/75/75 86/86/86 85/85/85
f 75/75/75 76/76/76 87/87/87 86/86/86
f 76/76/76 77/77/77 88/88/88 87/87/87
f 78/78/79 79/79/78 90/90/89 89/89/90
f 79/79/78 80/80/80 91/91/91 90/90/89
f 80/80/80 81/81/81 92/92/92 91/91/91
f 81/81/81 82/82/82 93/93/93 92/92/92
f 82/82/82 83/83/83 94/94/94 93/93/93
f 83/83/83 84/84/84 95/95/95 94/94/94
f 84/84/84 85/85/85 96/96/96 95/95/95
f 85/85/85 86/86/86 97/97/97 96/96/96
f 86/86/86 87/87/87 98/98/98 97/97/97
f 87/87/87 88/88/88 99/99/99 98/98/98
f 89/89/90 90/90/89 101/101/100 100/100/101
f 90/90/89 91/91/91 102/102/102 101/101/100
f 91/91/91 92/92/92 103/103/103 102/102/102
f 92/92/92 93/93/93 104/104/104 103/103/103
f 93/93/93 94/94/94 105/105/105 104/104/104
f 94/94/94 95/95/95 106/106/106 105/105/105
f 95/95/95 96/96/96 107/107/107 106/106/106
f 96/96/96 97/97/97 108/108/108 107/107/107
f 97/97/97 98/98/98 109/109/109 108/108/108
f 98/98/98 99/99/99 110/110/110 109/109/109
f 100/100/101 101/101/100 112/112/111 111/111/112
f 101/101/100 102/102/102 113/113/113 112/112/111
f 102/102/102 103/103/103 114/114/114 113/113/113
f 103/103/103 104/104/104 115/115/115 114/114/114
f 104/104/104 105/105/105 116/116/116 115/115/115
f 105/105/105 106/106/106 117/117/117 116/116/116
f 106/106/106 107/107/107 118/118/118 117/117/117
f 107/107/107 108/108/108 119/119/119 118/118/118
f 108/108/108 109/109/109 120/120/120 119/119/119
f 109/109/109 110/110/110 121/121/121 120/120/120
